<svg width="726" height="593" viewBox="0 0 726 593" fill="none" xmlns="http://www.w3.org/2000/svg">
<ellipse cx="363.434" cy="105.274" rx="103.055" ry="105.222" fill="black"/>
<path d="M423.979 226.124C441.655 226.124 519.052 252.736 534.898 318.482C534.898 318.482 540.075 369.608 540.075 415.233C540.075 482.948 369.313 482.948 359.412 482.948C349.506 482.948 178.75 482.947 178.75 415.233C178.75 369.608 183.928 318.482 183.928 318.482C199.773 252.736 277.17 226.124 294.847 226.124C308.365 226.125 323.847 242.124 359.412 242.124C394.978 242.124 410.46 226.125 423.979 226.124Z" fill="black"/>
<ellipse cx="568.216" cy="171.182" rx="66.9233" ry="68.3303" fill="black"/>
<ellipse cx="158.651" cy="171.182" rx="66.9233" ry="68.3303" fill="black"/>
<path d="M676.12 373.762C676.12 415.533 564.787 417.517 559.168 415.533C570.111 351.118 542.871 271.94 522.761 258.841C526.754 255.646 536.749 251.273 559.362 258.841C569.933 258.841 589.302 258.579 600.965 257.108C623.56 257.108 662.511 273.523 672.768 314.08C672.768 314.08 676.12 345.617 676.12 373.762Z" fill="black"/>
<path d="M50.1692 373.725C50.1692 415.496 161.502 417.48 167.121 415.496C158.029 349.462 183.142 269.863 203.528 258.804C199.535 255.609 189.539 251.236 166.927 258.804C156.355 258.804 136.987 258.542 125.324 257.071C102.728 257.071 63.7782 273.486 53.5207 314.043C53.5207 314.043 50.1692 345.58 50.1692 373.725Z" fill="black"/>
<path d="M725.613 365.083C730.3 454.146 621.539 592.094 392.798 592.094C145.029 592.094 -2.96343 468.209 0.543525 365.083C105.966 492.198 194.186 530.956 392.798 541.2C556.446 541.2 636.165 492.198 725.613 365.083Z" fill="black"/>
</svg>
